<svg width="189" height="189" xmlns="http://www.w3.org/2000/svg" xmlns:xlink="http://www.w3.org/1999/xlink" overflow="hidden"><defs><clipPath id="clip0"><rect x="0" y="0" width="189" height="189"/></clipPath><radialGradient cx="900112" cy="900112" r="1272951" fx="900112" fy="900112" gradientUnits="userSpaceOnUse" spreadMethod="pad" id="fill1" gradientTransform="matrix(0.000104987 0 0 0.000104987 0.500053 0.500053)"><stop offset="0" stop-color="#64C8FF"/><stop offset="0.010101" stop-color="#63C7FE"/><stop offset="0.020202" stop-color="#63C7FE"/><stop offset="0.030303" stop-color="#63C7FE"/><stop offset="0.040404" stop-color="#63C7FE"/><stop offset="0.050505" stop-color="#63C7FE"/><stop offset="0.0606061" stop-color="#63C7FE"/><stop offset="0.0707071" stop-color="#63C7FE"/><stop offset="0.0808081" stop-color="#63C7FE"/><stop offset="0.0909091" stop-color="#62C7FE"/><stop offset="0.10101" stop-color="#62C7FE"/><stop offset="0.111111" stop-color="#62C7FE"/><stop offset="0.121212" stop-color="#62C7FE"/><stop offset="0.131313" stop-color="#61C7FE"/><stop offset="0.141414" stop-color="#61C7FE"/><stop offset="0.151515" stop-color="#61C7FE"/><stop offset="0.161616" stop-color="#60C7FE"/><stop offset="0.171717" stop-color="#60C7FE"/><stop offset="0.181818" stop-color="#5FC7FE"/><stop offset="0.191919" stop-color="#5FC6FE"/><stop offset="0.20202" stop-color="#5FC6FE"/><stop offset="0.212121" stop-color="#5EC6FE"/><stop offset="0.222222" stop-color="#5EC6FE"/><stop offset="0.232323" stop-color="#5DC6FE"/><stop offset="0.242424" stop-color="#5CC6FD"/><stop offset="0.252525" stop-color="#5CC6FD"/><stop offset="0.262626" stop-color="#5BC6FD"/><stop offset="0.272727" stop-color="#5BC5FD"/><stop offset="0.282828" stop-color="#5AC5FD"/><stop offset="0.292929" stop-color="#59C5FD"/><stop offset="0.30303" stop-color="#59C5FD"/><stop offset="0.313131" stop-color="#58C5FD"/><stop offset="0.323232" stop-color="#57C5FD"/><stop offset="0.333333" stop-color="#57C4FD"/><stop offset="0.343434" stop-color="#56C4FC"/><stop offset="0.353535" stop-color="#55C4FC"/><stop offset="0.363636" stop-color="#54C4FC"/><stop offset="0.373737" stop-color="#54C4FC"/><stop offset="0.383838" stop-color="#53C4FC"/><stop offset="0.393939" stop-color="#52C3FC"/><stop offset="0.40404" stop-color="#51C3FC"/><stop offset="0.414141" stop-color="#50C3FC"/><stop offset="0.424242" stop-color="#4FC3FB"/><stop offset="0.434343" stop-color="#4FC2FB"/><stop offset="0.444444" stop-color="#4EC2FB"/><stop offset="0.454545" stop-color="#4DC2FB"/><stop offset="0.464646" stop-color="#4CC2FB"/><stop offset="0.474747" stop-color="#4BC2FB"/><stop offset="0.484848" stop-color="#4AC1FB"/><stop offset="0.494949" stop-color="#49C1FA"/><stop offset="0.50505" stop-color="#48C1FA"/><stop offset="0.515152" stop-color="#47C1FA"/><stop offset="0.525253" stop-color="#46C0FA"/><stop offset="0.535354" stop-color="#45C0FA"/><stop offset="0.545455" stop-color="#43C0FA"/><stop offset="0.555556" stop-color="#42C0FA"/><stop offset="0.565657" stop-color="#41BFF9"/><stop offset="0.575758" stop-color="#40BFF9"/><stop offset="0.585859" stop-color="#3FBFF9"/><stop offset="0.59596" stop-color="#3EBEF9"/><stop offset="0.606061" stop-color="#3CBEF9"/><stop offset="0.616162" stop-color="#3BBEF8"/><stop offset="0.626263" stop-color="#3ABEF8"/><stop offset="0.636364" stop-color="#39BDF8"/><stop offset="0.646465" stop-color="#37BDF8"/><stop offset="0.656566" stop-color="#36BDF8"/><stop offset="0.666667" stop-color="#35BCF7"/><stop offset="0.676768" stop-color="#33BCF7"/><stop offset="0.686869" stop-color="#32BCF7"/><stop offset="0.69697" stop-color="#31BBF7"/><stop offset="0.707071" stop-color="#2FBBF7"/><stop offset="0.717172" stop-color="#2EBBF6"/><stop offset="0.727273" stop-color="#2CBAF6"/><stop offset="0.737374" stop-color="#2BBAF6"/><stop offset="0.747475" stop-color="#2ABAF6"/><stop offset="0.757576" stop-color="#28B9F6"/><stop offset="0.767677" stop-color="#27B9F5"/><stop offset="0.777778" stop-color="#25B9F5"/><stop offset="0.787879" stop-color="#24B8F5"/><stop offset="0.79798" stop-color="#22B8F5"/><stop offset="0.808081" stop-color="#20B7F4"/><stop offset="0.818182" stop-color="#1FB7F4"/><stop offset="0.828283" stop-color="#1DB7F4"/><stop offset="0.838384" stop-color="#1CB6F4"/><stop offset="0.848485" stop-color="#1AB6F3"/><stop offset="0.858586" stop-color="#18B5F3"/><stop offset="0.868687" stop-color="#17B5F3"/><stop offset="0.878788" stop-color="#15B5F3"/><stop offset="0.888889" stop-color="#13B4F2"/><stop offset="0.89899" stop-color="#12B4F2"/><stop offset="0.909091" stop-color="#10B3F2"/><stop offset="0.919192" stop-color="#0EB3F2"/><stop offset="0.929293" stop-color="#0CB3F1"/><stop offset="0.939394" stop-color="#0BB2F1"/><stop offset="0.949495" stop-color="#09B2F1"/><stop offset="0.959596" stop-color="#07B1F1"/><stop offset="0.969697" stop-color="#05B1F0"/><stop offset="0.979798" stop-color="#03B0F0"/><stop offset="0.989899" stop-color="#01B0F0"/><stop offset="1" stop-color="#00B0F0"/></radialGradient></defs><g clip-path="url(#clip0)"><rect x="0" y="0" width="189" height="189" fill="#FFFFFF"/><path d="M0.500053 95C0.500053 42.8091 42.8091 0.500053 95 0.500053 147.191 0.500053 189.5 42.8091 189.5 95 189.5 147.191 147.191 189.5 95 189.5 42.8091 189.5 0.500053 147.191 0.500053 95ZM14.125 95C14.125 139.666 50.334 175.875 95 175.875 139.666 175.875 175.875 139.666 175.875 95 175.875 50.334 139.666 14.125 95 14.125 50.334 14.125 14.125 50.334 14.125 95Z" stroke="#002060" stroke-width="0.666667" stroke-miterlimit="8" fill="url(#fill1)" fill-rule="evenodd"/><g><g><g><path d="M141.667 18.9302 141.667 16.3625C141.683 13.5263 139.397 11.2139 136.561 11.1975 135.883 11.1936 135.211 11.324 134.583 11.5813L103.983 23.5167C98.2333 25.7511 92.9355 29.0091 88.3469 33.1323L64.7948 54.3823C61.8279 57.0143 57.9941 58.4582 54.0281 58.4375L53.3021 58.4375C44.1157 58.4364 35.3055 62.0867 28.8115 68.5844L25.8188 71.5771C24.3713 73.0341 24.3791 75.3886 25.8361 76.8361 26.5285 77.5241 27.4635 77.9121 28.4396 77.9167L41.0302 77.9167C44.772 77.9264 47.8028 80.9572 47.8125 84.699L47.8125 103.47C47.8125 126.521 66.4994 145.208 89.551 145.208L92.0833 145.208C95.3488 145.208 98.3581 146.977 99.9458 149.83L102.832 155.036C104.951 158.841 108.979 161.184 113.333 161.146L113.333 161.146C114.781 161.16 115.965 159.998 115.979 158.551 115.983 158.227 115.926 157.907 115.813 157.604L110.677 142.534C110.099 140.816 108.965 139.34 107.454 138.338L107.454 138.338C106.359 137.6 106.068 136.115 106.806 135.019 106.978 134.763 107.198 134.543 107.454 134.371L107.454 134.371C108.961 133.361 110.079 131.868 110.624 130.139L116.308 113.333C116.504 112.576 116.048 111.803 115.291 111.607 115.178 111.578 115.061 111.563 114.945 111.562L114.945 111.562C109.577 111.564 104.631 114.471 102.018 119.159L97.5552 127.164C96.3558 129.527 93.937 131.024 91.2865 131.042L88.5417 131.042C79.7396 131.042 72.6042 123.906 72.6042 115.104L72.6042 115.104C72.3338 111.761 73.6444 108.484 76.1458 106.25L124.118 59.1104C126.283 56.9815 127.502 54.0719 127.5 51.0354L127.5 48.5208C127.49 47.1027 126.333 45.9611 124.915 45.9708 124.365 45.9746 123.831 46.1546 123.392 46.4844L113.9 53.6562C112.938 54.3784 111.573 54.1838 110.85 53.2217 110.793 53.1457 110.741 53.066 110.695 52.9833L110.695 52.9833C110.179 52.0427 110.419 50.867 111.261 50.2031L135.646 31.2375C139.452 28.2899 141.676 23.744 141.667 18.9302Z" stroke="#FFFFFF" stroke-width="2.66666" fill="#002060" transform="matrix(1.00588 0 0 1 9 0)"/><path d="M90.7729 110.27C92.1191 111.808 94.4573 111.963 95.9955 110.617 96.749 109.958 97.2032 109.021 97.2542 108.021L97.5552 103.771C97.8253 99.6283 97.3454 95.4709 96.1385 91.499L84.451 102.974Z" stroke="#FFFFFF" stroke-width="2.66666" fill="#002060" transform="matrix(1.00588 0 0 1 9 0)"/></g></g></g><rect x="0.500053" y="113.5" width="189" height="76" stroke="#172C51" stroke-width="1.33333" stroke-miterlimit="8" stroke-opacity="0" fill="#4472C4" fill-opacity="0"/><path d="M82.0442 156.821C79.7707 158.485 78.4524 159.88 78.0891 161.005 77.7258 162.13 77.5442 163.747 77.5442 165.856 77.5442 168.27 77.7024 169.829 78.0188 170.532 78.3352 171.235 78.9622 171.587 79.8997 171.587 80.7903 171.587 81.3704 171.311 81.6399 170.761 81.9094 170.21 82.0442 168.763 82.0442 166.419ZM154.884 139.77C154.064 139.77 153.484 140.104 153.144 140.772 152.804 141.44 152.634 142.759 152.634 144.727L152.634 160.407C152.634 162.493 152.763 163.847 153.021 164.468 153.279 165.089 153.818 165.399 154.638 165.399 155.575 165.399 156.185 165.024 156.466 164.274 156.747 163.524 156.888 161.825 156.888 159.177L156.888 144.727C156.888 142.595 156.765 141.235 156.519 140.649 156.273 140.063 155.728 139.77 154.884 139.77ZM44.8528 132.352 59.4778 132.352 59.4778 179.005 44.8528 179.005ZM148.099 131.509C149.88 131.509 151.503 131.873 152.968 132.601 154.433 133.329 155.739 134.421 156.888 135.877L157.907 132.352 171.126 132.352 171.126 168.282C171.126 173.134 171.015 176.268 170.792 177.686 170.57 179.104 169.779 180.604 168.419 182.186 167.06 183.768 165.167 184.975 162.741 185.807 160.316 186.639 157.263 187.056 153.583 187.056 149.06 187.056 145.427 186.288 142.685 184.753 139.943 183.218 138.525 180.2 138.431 175.7L152.212 175.7C152.212 177.763 152.962 178.794 154.462 178.794 155.54 178.794 156.255 178.477 156.607 177.843 156.958 177.21 157.134 175.884 157.134 173.867L157.134 170.348C155.915 171.452 154.632 172.286 153.284 172.85 151.937 173.414 150.525 173.696 149.048 173.696 146.493 173.696 144.39 173.181 142.738 172.149 141.085 171.118 139.954 169.764 139.345 168.089 138.736 166.413 138.431 164.028 138.431 160.934L138.431 143.989C138.431 139.559 139.228 136.372 140.822 134.427 142.415 132.481 144.841 131.509 148.099 131.509ZM123.986 131.509C126.423 131.509 128.415 132.083 129.962 133.231 131.509 134.38 132.505 135.827 132.95 137.573 133.396 139.319 133.618 142.231 133.618 146.309L133.618 179.005 119.415 179.005 119.415 146.696C119.415 143.485 119.31 141.528 119.099 140.825 118.888 140.122 118.302 139.77 117.341 139.77 116.333 139.77 115.7 140.175 115.443 140.983 115.185 141.792 115.056 143.954 115.056 147.47L115.056 179.005 100.853 179.005 100.853 132.352 115.302 132.352 115.056 136.65C116.087 134.936 117.347 133.651 118.835 132.794 120.323 131.937 122.04 131.509 123.986 131.509ZM80.2512 131.509C85.0559 131.509 88.677 132.358 91.1145 134.057 93.552 135.757 95.0168 137.843 95.509 140.315 96.0012 142.788 96.2473 147.88 96.2473 155.591L96.2473 179.005 82.4309 179.005 82.4309 174.848C81.5637 176.514 80.4446 177.765 79.0735 178.598 77.7024 179.432 76.0676 179.848 74.1692 179.848 71.6848 179.848 69.4055 179.151 67.3313 177.757 65.2571 176.362 64.22 173.309 64.22 168.598L64.22 164.766C64.22 161.274 64.7707 158.895 65.8723 157.63 66.9739 156.364 69.7043 154.888 74.0637 153.2 78.7278 151.372 81.2239 150.141 81.552 149.509 81.8801 148.876 82.0442 147.587 82.0442 145.641 82.0442 143.204 81.8625 141.616 81.4993 140.878 81.136 140.139 80.5325 139.77 79.6887 139.77 78.7278 139.77 78.1301 140.081 77.8957 140.702 77.6614 141.323 77.5442 142.934 77.5442 145.536L77.5442 150.423 64.22 150.423 64.22 147.294C64.22 143.684 64.636 140.901 65.468 138.944 66.3 136.987 67.97 135.259 70.4778 133.759 72.9856 132.259 76.2434 131.509 80.2512 131.509ZM44.8528 122.087 59.4778 122.087 59.4778 129.505 44.8528 129.505ZM18.2747 122.087 33.0754 122.087 33.0754 167.614 42.0754 167.614 42.0754 179.005 18.2747 179.005Z" stroke="#FFFFFF" stroke-width="3" stroke-linejoin="round" stroke-miterlimit="10" fill="#0070C0" fill-rule="evenodd"/><text fill="#000000" fill-opacity="0" font-family="Arial,Arial_MSFontService,sans-serif" font-size="64.9688" x="18.2747" y="178.934">Liang</text></g></svg>